<?xml version="1.0" encoding="utf-8"?>
<!-- Generator: Adobe Illustrator 16.0.0, SVG Export Plug-In . SVG Version: 6.00 Build 0)  -->
<!DOCTYPE svg PUBLIC "-//W3C//DTD SVG 1.1//EN" "http://www.w3.org/Graphics/SVG/1.1/DTD/svg11.dtd">
<svg version="1.1" id="Ebene_1" xmlns="http://www.w3.org/2000/svg" xmlns:xlink="http://www.w3.org/1999/xlink" x="0px" y="0px"
	 width="124px" height="124px" viewBox="0 0 124 124" enable-background="new 0 0 124 124" xml:space="preserve">
<g>
	<circle fill="#F18518" cx="62" cy="61.883" r="62"/>
	<g>
		<path fill="#FFFFFF" d="M32.245,32.116h12.699c2.324,0,4.371,0.305,6.142,0.913c1.77,0.61,3.375,1.688,4.814,3.237
			c1.438,1.55,2.434,3.361,2.988,5.437c0.553,2.075,0.83,4.884,0.83,8.424c0,2.602-0.153,4.828-0.457,6.682
			c-0.305,1.854-0.955,3.583-1.951,5.188c-1.162,1.937-2.711,3.445-4.648,4.523c-1.938,1.08-4.482,1.619-7.636,1.619h-4.316v23.074
			h-8.466V32.116z M40.711,60.17h4.067c1.714,0,3.042-0.249,3.984-0.747c0.94-0.498,1.631-1.175,2.075-2.033
			c0.442-0.857,0.706-1.895,0.788-3.113c0.083-1.216,0.125-2.573,0.125-4.067c0-1.382-0.042-2.698-0.125-3.942
			c-0.083-1.245-0.332-2.324-0.747-3.237s-1.066-1.631-1.951-2.158c-0.886-0.525-2.158-0.789-3.818-0.789h-4.399V60.17z"/>
		<path fill="#FFFFFF" d="M93.416,49.131h-8.467v-1.909c0-1.936-0.456-3.61-1.369-5.021c-0.913-1.411-2.449-2.116-4.606-2.116
			c-1.162,0-2.116,0.222-2.864,0.664c-0.746,0.443-1.327,1.01-1.742,1.701c-0.415,0.693-0.705,1.494-0.871,2.407
			s-0.25,1.868-0.25,2.863c0,1.162,0.042,2.145,0.125,2.947c0.083,0.803,0.291,1.494,0.623,2.075
			c0.332,0.581,0.814,1.093,1.451,1.536c0.637,0.443,1.508,0.886,2.615,1.328l6.475,2.573c1.88,0.72,3.402,1.564,4.564,2.532
			c1.162,0.969,2.061,2.104,2.697,3.403c0.636,1.301,1.064,2.795,1.287,4.481c0.221,1.688,0.332,3.61,0.332,5.769
			c0,2.49-0.25,4.801-0.748,6.931c-0.498,2.131-1.314,3.956-2.447,5.478c-1.135,1.523-2.644,2.727-4.524,3.611
			c-1.882,0.885-4.179,1.328-6.889,1.328c-2.048,0-3.957-0.361-5.728-1.08c-1.771-0.718-3.293-1.701-4.564-2.945
			c-1.273-1.246-2.283-2.726-3.029-4.441c-0.748-1.715-1.121-3.568-1.121-5.561v-3.154h8.467v2.656c0,1.55,0.456,2.946,1.369,4.191
			c0.912,1.245,2.448,1.867,4.606,1.867c1.438,0,2.559-0.207,3.361-0.622c0.802-0.415,1.411-0.996,1.826-1.743
			s0.677-1.673,0.788-2.78c0.11-1.106,0.166-2.324,0.166-3.652c0-1.548-0.056-2.821-0.166-3.817
			c-0.111-0.996-0.346-1.798-0.705-2.408c-0.361-0.607-0.859-1.105-1.494-1.493c-0.637-0.387-1.48-0.802-2.531-1.245l-6.059-2.49
			c-3.652-1.494-6.102-3.472-7.346-5.934c-1.246-2.462-1.868-5.547-1.868-9.255c0-2.212,0.304-4.316,0.913-6.308
			c0.608-1.992,1.508-3.707,2.697-5.146c1.189-1.438,2.697-2.586,4.523-3.445c1.826-0.857,3.956-1.287,6.392-1.287
			c2.103,0,4.025,0.388,5.769,1.162c1.742,0.776,3.236,1.799,4.482,3.071c1.244,1.273,2.199,2.697,2.863,4.274
			s0.996,3.195,0.996,4.855V49.131z"/>
	</g>
</g>
</svg>
